<?xml version="1.0" standalone="no"?>
<!DOCTYPE svg PUBLIC "-//W3C//DTD SVG 20010904//EN"
 "http://www.w3.org/TR/2001/REC-SVG-20010904/DTD/svg10.dtd">
<svg version="1.0" xmlns="http://www.w3.org/2000/svg"
 width="960.000000pt" height="960.000000pt" viewBox="0 0 960.000000 960.000000"
 preserveAspectRatio="xMidYMid meet">

<g transform="translate(0.000000,960.000000) scale(0.100000,-0.100000)"
fill="#000000" stroke="none">
<path d="M4705 8665 c-84 -18 -102 -27 -164 -73 -68 -51 -135 -147 -151 -214
-56 -231 158 -477 415 -478 225 0 385 146 385 352 0 268 -236 470 -485 413z"/>
<path d="M6810 7860 c-69 -83 -104 -98 -271 -115 -175 -17 -361 -54 -454 -90
-64 -24 -79 -26 -175 -22 -90 4 -135 14 -315 66 -301 86 -317 88 -795 82 -137
-1 -275 3 -330 9 -105 13 -206 7 -290 -16 -89 -26 -253 -112 -375 -199 -33
-23 -73 -49 -90 -58 -29 -15 -128 -95 -246 -197 -30 -27 -68 -67 -84 -90 -28
-41 -29 -44 -31 -198 -2 -86 1 -209 6 -272 9 -107 28 -331 34 -391 5 -43 29
-87 54 -98 12 -6 46 -11 75 -11 59 0 112 29 136 74 13 22 12 31 -4 66 -10 22
-43 64 -73 92 l-56 53 17 90 c9 49 30 141 46 204 17 63 33 146 36 184 3 39 11
77 17 85 27 32 136 96 308 182 101 50 185 88 189 85 3 -4 11 -33 18 -65 6 -32
39 -114 72 -181 78 -156 95 -218 88 -329 -5 -92 -15 -119 -96 -265 -24 -44
-62 -111 -83 -150 -103 -186 -111 -235 -82 -545 6 -67 2 -93 -50 -350 -14 -69
-31 -150 -36 -180 -23 -118 -79 -285 -114 -335 -27 -40 -54 -63 -156 -137
-105 -77 -161 -135 -205 -213 -19 -33 -76 -177 -128 -320 -111 -305 -157 -415
-174 -415 -7 0 -13 4 -13 10 0 5 -8 14 -18 19 -15 8 -32 1 -84 -34 -92 -62
-121 -99 -113 -144 6 -31 55 -109 97 -152 44 -46 90 -115 127 -191 62 -127
130 -180 236 -181 65 -2 114 19 127 52 9 23 5 30 -35 66 -85 76 -110 141 -111
285 0 66 4 93 17 113 25 39 21 47 -24 47 -37 0 -40 2 -33 23 11 36 44 98 85
159 22 31 39 59 39 63 0 3 12 24 27 48 49 78 78 122 83 127 3 3 25 32 49 65
81 109 177 219 276 315 54 52 130 127 170 165 109 107 356 487 473 725 56 115
68 146 113 280 l38 115 43 8 c66 12 189 47 228 64 91 40 216 103 325 166 164
95 435 229 444 221 2 -2 -32 -40 -76 -83 -95 -94 -133 -163 -163 -296 -11 -49
-29 -131 -40 -180 -31 -140 -170 -492 -190 -480 -5 3 -10 12 -10 20 0 8 -4 16
-9 20 -13 7 -79 -31 -136 -78 -39 -33 -45 -43 -45 -76 0 -33 8 -46 73 -112 39
-41 97 -95 127 -119 30 -25 75 -67 100 -95 90 -99 158 -163 191 -180 18 -10
60 -20 94 -22 50 -4 64 -2 86 16 29 22 42 74 25 95 -6 7 -30 27 -54 45 -59 46
-96 104 -131 207 -38 111 -54 206 -40 240 13 35 4 44 -31 31 -52 -20 -52 2 -2
83 26 42 66 103 88 135 251 365 369 558 430 710 59 145 64 163 64 251 0 63 -4
86 -21 114 -44 72 -92 98 -200 107 -62 5 -128 0 -339 -28 -128 -17 -384 -95
-482 -146 -29 -15 -56 -29 -60 -31 -13 -6 -9 16 6 30 20 20 24 40 36 168 11
125 21 165 72 310 21 59 50 116 76 151 44 58 108 188 118 239 6 26 11 30 39
30 18 0 77 -9 132 -20 186 -39 218 -43 373 -43 135 0 167 3 250 25 52 14 136
45 185 68 50 23 128 60 175 82 134 63 193 79 322 87 145 10 178 29 178 104 0
41 -11 70 -41 102 -9 11 -19 38 -21 60 -3 35 -6 40 -29 43 -21 2 -35 -7 -69
-48z"/>
<path d="M3211 2933 c-40 -20 -65 -72 -57 -118 18 -92 155 -110 211 -27 45 66
27 132 -43 152 -50 14 -71 12 -111 -7z"/>
<path d="M2426 2891 c-4 -5 -3 -230 1 -500 l6 -491 109 0 108 0 0 190 0 189
83 -2 c45 -1 125 -1 178 1 l97 2 1 90 2 90 -182 2 -181 3 -1 113 c-2 93 1 112
13 114 34 3 93 5 245 6 l160 2 -3 100 -3 100 -314 0 c-177 0 -316 -4 -319 -9z"/>
<path d="M3680 2841 l-75 -6 -5 -95 c-6 -105 2 -96 -77 -99 -22 -1 -23 -5 -23
-82 l0 -81 50 4 c42 3 50 0 54 -17 3 -11 5 -104 6 -207 1 -196 8 -239 50 -298
45 -64 163 -87 289 -58 l51 11 0 67 c0 37 -2 69 -5 72 -3 3 -20 2 -38 -1 -43
-9 -101 2 -124 24 -16 16 -18 41 -21 217 l-4 198 96 0 96 0 0 80 0 79 -92 3
-93 3 0 95 0 95 -30 1 c-16 0 -64 -2 -105 -5z"/>
<path d="M5994 2676 c-105 -24 -158 -60 -196 -131 -27 -49 -29 -136 -5 -181
22 -42 93 -86 201 -123 136 -48 154 -58 162 -94 5 -26 2 -35 -20 -54 -22 -19
-39 -23 -90 -23 -70 0 -158 23 -198 51 -32 23 -44 24 -52 3 -5 -13 -36 -140
-36 -148 0 -9 102 -45 155 -56 225 -46 413 27 445 173 19 81 2 153 -47 202
-43 43 -81 61 -188 86 -101 24 -122 35 -134 71 -9 26 -7 33 15 55 24 24 31 25
92 21 37 -3 99 -16 138 -29 l71 -25 11 46 c20 85 21 95 9 110 -32 41 -233 68
-333 46z"/>
<path d="M6705 2683 c-167 -37 -245 -117 -245 -251 0 -113 104 -197 270 -217
57 -7 89 -25 109 -62 19 -37 13 -62 -21 -84 -52 -32 -154 -23 -252 24 l-75 36
-19 -52 c-43 -117 -44 -116 72 -153 101 -33 240 -37 328 -11 67 20 133 68 162
117 28 49 29 160 1 215 -29 59 -102 109 -188 129 -144 35 -195 70 -180 124 9
37 102 43 223 14 l75 -18 21 64 21 63 -40 20 c-69 36 -199 56 -262 42z"/>
<path d="M4446 2649 c-39 -20 -86 -65 -86 -80 0 -5 -4 -9 -10 -9 -5 0 -10 23
-10 51 0 43 -3 50 -16 45 -9 -3 -56 -6 -105 -6 l-89 0 0 -375 0 -375 110 0
110 0 0 228 c0 125 4 244 9 265 14 57 44 80 111 85 67 5 93 -7 120 -51 18 -29
20 -52 20 -280 l0 -249 113 4 112 3 -3 260 c-4 370 -20 424 -139 484 -59 30
-192 30 -247 0z"/>
<path d="M5182 2651 c-109 -44 -185 -126 -218 -237 -31 -106 -19 -263 23 -315
7 -8 13 -20 13 -25 0 -6 21 -32 48 -58 83 -83 228 -135 341 -122 113 13 241
65 241 98 0 6 -14 35 -31 65 -22 38 -34 51 -42 44 -29 -23 -132 -43 -198 -39
-82 6 -129 33 -164 92 -46 78 -50 76 168 76 293 1 316 10 310 116 -7 137 -77
249 -185 299 -46 22 -66 25 -158 24 -74 -1 -118 -6 -148 -18z m219 -145 c39
-27 69 -79 69 -120 l0 -26 -150 0 c-150 0 -150 0 -150 23 0 13 13 43 29 68 49
78 134 101 202 55z"/>
<path d="M3164 2635 c-3 -6 -3 -172 -2 -370 l3 -360 110 0 110 0 0 88 c0 48
-2 215 -3 371 l-2 284 -106 -1 c-61 -1 -108 -6 -110 -12z"/>
</g>
</svg>
